<?xml version="1.0" standalone="no"?>
<!DOCTYPE svg PUBLIC "-//W3C//DTD SVG 20010904//EN"
 "http://www.w3.org/TR/2001/REC-SVG-20010904/DTD/svg10.dtd">
<svg version="1.0" xmlns="http://www.w3.org/2000/svg"
 width="96.000000pt" height="96.000000pt" viewBox="0 0 96.000000 96.000000"
 preserveAspectRatio="xMidYMid meet">

<g transform="translate(0.000000,96.000000) scale(0.100000,-0.100000)"
fill="#000000" stroke="none">
<path d="M680 879 c-25 -4 -65 -15 -90 -25 -43 -17 -150 -79 -150 -88 0 -2 30
11 68 29 144 72 289 61 327 -23 13 -29 25 -28 25 2 0 82 -71 123 -180 105z"/>
<path d="M505 695 c-41 -21 -350 -372 -350 -399 0 -18 7 -21 56 -24 l57 -3
123 141 c68 77 127 140 131 140 4 0 21 -25 36 -56 l29 -57 41 58 c23 32 42 64
42 72 0 24 -49 111 -72 127 -28 20 -54 20 -93 1z"/>
<path d="M387 332 c-26 -26 -47 -51 -47 -55 0 -21 55 -2 108 37 80 59 83 66
30 66 -39 0 -49 -5 -91 -48z"/>
</g>
</svg>
