<?xml version="1.0" encoding="UTF-8"?>
<svg version="1.1" xmlns="http://www.w3.org/2000/svg" width="96" height="96">
<path d="M0 0 C5.76752349 -0.34605141 10.0181105 -0.32125966 15 3 C18.47561103 6.835157 19.35160531 10.46095851 19.28515625 15.625 C18.65821292 20.84666503 16.69333283 26.40406904 13.81738281 30.81298828 C12.52705733 32.8967661 11.607587 34.62055502 11 37 C11.79300018 40.33949423 13.43221669 42.98882594 15.25 45.875 C16.13277511 47.37088405 17.01311052 48.8682114 17.890625 50.3671875 C18.49438965 51.34341064 18.49438965 51.34341064 19.11035156 52.33935547 C20 54 20 54 20 56 C19.21874756 55.99887207 18.43749512 55.99774414 17.63256836 55.99658203 C14.0666842 56.00874416 10.50291211 56.06646065 6.9375 56.125 C5.09381836 56.12113281 5.09381836 56.12113281 3.21289062 56.1171875 C-4.46921982 56.14030349 -4.46921982 56.14030349 -10.9296875 59.7890625 C-11.44442627 60.32966309 -11.95916504 60.87026367 -12.48950195 61.42724609 C-14.95527894 63.9946512 -17.97137124 65.53841154 -21.0625 67.25 C-21.64837891 67.58773437 -22.23425781 67.92546875 -22.83789062 68.2734375 C-28.75571975 71.61001596 -33.75689535 73.28839514 -40.5625 73.3125 C-41.65691406 73.32925781 -42.75132813 73.34601563 -43.87890625 73.36328125 C-47.37530185 72.95631656 -49.20095986 72.10050991 -52 70 C-55.48409835 64.77385247 -54.43654663 58.09899931 -54 52 C-53.274651 49.03151972 -52.35008736 46.75642837 -51 44 C-50.01 44.33 -49.02 44.66 -48 45 C-48 45.99 -48 46.98 -48 48 C-42.87507942 42.39042899 -37.76792903 36.77182374 -32.78515625 31.03515625 C-29.91756839 27.76598059 -26.9893379 24.55170723 -24.06640625 21.33203125 C-22.40078254 19.4523009 -20.84527445 17.54869969 -19.3125 15.5625 C-16.66966369 12.63395165 -14.73532037 11.27000893 -11 10 C-6.40972663 9.91946889 -4.65739776 10.37317888 -1.3125 13.5625 C1.2997255 17.11754862 3.14293149 21.01074172 5 25 C7.51752101 19.23068102 8.90841507 14.32157335 8 8 C6.99963019 5.43991037 6.99963019 5.43991037 5 4 C2.40144267 3.1957792 2.40144267 3.1957792 0 3 C0 2.01 0 1.02 0 0 Z M3 27 C4 29 4 29 4 29 Z M-14.84765625 29.80078125 C-15.57855469 30.62964844 -16.30945313 31.45851563 -17.0625 32.3125 C-18.26519531 33.67568359 -18.26519531 33.67568359 -19.4921875 35.06640625 C-21.93684943 37.9261276 -24.32073012 40.82563518 -26.6875 43.75 C-27.43644531 44.66007812 -28.18539062 45.57015625 -28.95703125 46.5078125 C-30.16628759 47.98296651 -31.3586838 49.47268407 -32.51171875 50.9921875 C-35.62883416 54.72558075 -38.22805784 55.42453112 -42.875 55.875 C-44.58247595 55.94329904 -46.29116943 55.99391875 -48 56 C-47.31945624 59.00726269 -47.31945624 59.00726269 -45.375 60.1875 C-38.17978275 62.64902169 -31.55036641 60.13572379 -25 57 C-16.12790333 51.75788271 -8.9884115 45.55631853 -2 38 C-2.495 37.01 -2.495 37.01 -3 36 C-3.99 36.66 -4.98 37.32 -6 38 C-8.475 33.05 -8.475 33.05 -11 28 C-13.19129712 27.76734524 -13.19129712 27.76734524 -14.84765625 29.80078125 Z M2 29 C2 32 2 32 2 32 Z M0 32 C0 35 0 35 0 35 Z " fill="#1CAEF8" transform="translate(64,14)"/>
<path d="M0 0 C4.17577171 4.08086781 7.85680288 8.77806488 8.125 14.8125 C6.45317735 19.54933085 3.58224313 23.4803288 0 27 C-0.99 27 -1.98 27 -3 27 C-3.67154933 25.71086513 -4.33708859 24.41859796 -5 23.125 C-5.37125 22.40570313 -5.7425 21.68640625 -6.125 20.9453125 C-7 19 -7 19 -7 17 C-10.72856082 20.68075876 -14.32810044 24.45685302 -17.875 28.3125 C-18.3994873 28.88137939 -18.92397461 29.45025879 -19.46435547 30.03637695 C-22.93417882 33.81078678 -26.35028439 37.62582789 -29.6953125 41.51171875 C-32.73733464 44.98180988 -32.73733464 44.98180988 -35.8203125 45.1953125 C-36.91085938 45.17210937 -38.00140625 45.14890625 -39.125 45.125 C-40.22070312 45.10695312 -41.31640625 45.08890625 -42.4453125 45.0703125 C-43.28835937 45.04710937 -44.13140625 45.02390625 -45 45 C-45.84375 42.3984375 -45.84375 42.3984375 -46 39 C-44.22997908 36.55712867 -42.63126508 34.69917485 -40.5 32.625 C-39.37821365 31.47593617 -38.25711612 30.32619946 -37.13671875 29.17578125 C-36.59192871 28.62744629 -36.04713867 28.07911133 -35.48583984 27.51416016 C-33.68339954 25.67736509 -31.98737081 23.7658529 -30.3125 21.8125 C-26.95649054 17.9313448 -23.51512819 14.13087725 -20.06640625 10.33203125 C-18.40078254 8.4523009 -16.84527445 6.54869969 -15.3125 4.5625 C-10.75428552 -0.48849442 -6.58798497 -2.03628626 0 0 Z " fill="#FE0000" transform="translate(60,25)"/>
<path d="M0 0 C1.79595703 1.20898571 3.32169889 2.61076139 4.8515625 4.140625 C4.92400303 6.16026699 4.93533438 8.18229624 4.9140625 10.203125 C4.90503906 11.30785156 4.89601562 12.41257812 4.88671875 13.55078125 C4.87511719 14.40542969 4.86351562 15.26007812 4.8515625 16.140625 C4.1915625 16.140625 3.5315625 16.140625 2.8515625 16.140625 C2.26375 14.5009375 2.26375 14.5009375 1.6640625 12.828125 C0.11267795 9.20578843 -1.47163323 7.75483175 -5.1484375 6.140625 C-13.23510715 3.1755128 -21.5204855 6.12411671 -29.1484375 9.140625 C-32.45163054 10.92735214 -35.62600902 12.81827028 -38.78515625 14.84765625 C-39.56503906 15.27433594 -40.34492187 15.70101563 -41.1484375 16.140625 C-41.8084375 15.810625 -42.4684375 15.480625 -43.1484375 15.140625 C-33.42341715 4.90376147 -14.38388597 -5.75355439 0 0 Z " fill="#FF0000" transform="translate(81.1484375,7.859375)"/>
<path d="M0 0 C-1.29604903 3.88814708 -3.05050699 4.72837433 -6.375 7.0625 C-7.35210937 7.75472656 -8.32921875 8.44695312 -9.3359375 9.16015625 C-14.05478809 12.41906919 -16.21878791 13.21815895 -22 13 C-17.56871462 2.98942784 -10.81181925 -1.63692964 0 0 Z " fill="#FE0000" transform="translate(54,57)"/>
<path d="M0 0 C0.99 0.33 1.98 0.66 3 1 C2.34 3.64 1.68 6.28 1 9 C0.01 8.67 -0.98 8.34 -2 8 C-1.125 2.25 -1.125 2.25 0 0 Z " fill="#3FA0D8" transform="translate(13,58)"/>
</svg>
